<?xml version="1.0" encoding="UTF-8"?>
<svg xmlns="http://www.w3.org/2000/svg" xmlns:xlink="http://www.w3.org/1999/xlink" width="20pt" height="20pt" viewBox="0 0 20 20" version="1.1">
<g id="surface27341">
<path style="fill-rule:nonzero;fill:rgb(100%,100%,100%);fill-opacity:1;stroke-width:2;stroke-linecap:round;stroke-linejoin:round;stroke:rgb(0%,0%,0%);stroke-opacity:1;stroke-miterlimit:10;" d="M 0 0 C 0 0 20 0 20 0 C 20 0 20 20 20 20 C 20 20 0 20 0 20 C 0 20 0 0 0 0 Z M 0 0 "/>
<path style=" stroke:none;fill-rule:nonzero;fill:rgb(66.27451%,76.470588%,23.529412%);fill-opacity:1;" d="M 0 0 C 0 0 20 0 20 0 C 20 0 10 10 10 10 C 10 10 0 0 0 0 Z M 0 0 "/>
<path style=" stroke:none;fill-rule:nonzero;fill:rgb(100%,42.745098%,13.333333%);fill-opacity:1;" d="M 20 0 C 20 0 20 20 20 20 C 20 20 10 10 10 10 C 10 10 20 0 20 0 Z M 20 0 "/>
<path style=" stroke:none;fill-rule:nonzero;fill:rgb(66.27451%,76.470588%,23.529412%);fill-opacity:1;" d="M 20 20 C 20 20 0 20 0 20 C 0 20 10 10 10 10 C 10 10 20 20 20 20 Z M 20 20 "/>
<path style=" stroke:none;fill-rule:nonzero;fill:rgb(100%,42.745098%,13.333333%);fill-opacity:1;" d="M 0 20 C 0 20 0 0 0 0 C 0 0 10 10 10 10 C 10 10 0 20 0 20 Z M 0 20 "/>
</g>
</svg>
